<svg width="190" height="40" viewBox="0 0 190 40" fill="none" xmlns="http://www.w3.org/2000/svg">
<rect width="190" height="40" rx="20" fill="white"/>
<path d="M70.7911 24.12C72.7911 24.12 73.7611 23.12 73.7611 21.95C73.7611 19.38 69.6911 20.27 69.6911 18.98C69.6911 18.54 70.0611 18.18 71.0211 18.18C71.6411 18.18 72.3111 18.36 72.9611 18.73L73.4611 17.5C72.8111 17.09 71.9111 16.88 71.0311 16.88C69.0411 16.88 68.0811 17.87 68.0811 19.06C68.0811 21.66 72.1511 20.76 72.1511 22.07C72.1511 22.5 71.7611 22.82 70.8011 22.82C69.9611 22.82 69.0811 22.52 68.4911 22.09L67.9411 23.31C68.5611 23.79 69.6811 24.12 70.7911 24.12ZM76.4781 22.7V21.08H79.7281V19.82H76.4781V18.3H80.1581V17H74.8681V24H80.2881V22.7H76.4781ZM83.1871 22.7V21.08H86.4371V19.82H83.1871V18.3H86.8671V17H81.5771V24H86.9971V22.7H83.1871ZM99.0081 24L98.9881 17H97.6581L95.0781 21.35L92.4581 17H91.1181V24H92.6381V19.89L94.6881 23.26H95.4181L97.4781 19.8L97.4881 24H99.0081ZM104.059 24.12C106.259 24.12 107.889 22.59 107.889 20.5C107.889 18.41 106.259 16.88 104.059 16.88C101.849 16.88 100.229 18.42 100.229 20.5C100.229 22.58 101.849 24.12 104.059 24.12ZM104.059 22.74C102.809 22.74 101.869 21.83 101.869 20.5C101.869 19.17 102.809 18.26 104.059 18.26C105.309 18.26 106.249 19.17 106.249 20.5C106.249 21.83 105.309 22.74 104.059 22.74ZM115.306 24L113.736 21.75C114.646 21.36 115.176 20.59 115.176 19.54C115.176 17.97 114.006 17 112.136 17H109.106V24H110.726V22.05H112.136H112.216L113.566 24H115.306ZM113.536 19.54C113.536 20.3 113.036 20.76 112.046 20.76H110.726V18.32H112.046C113.036 18.32 113.536 18.77 113.536 19.54ZM118.07 22.7V21.08H121.32V19.82H118.07V18.3H121.75V17H116.46V24H121.88V22.7H118.07Z" fill="#3C444C"/>
<path d="M166.578 24.5938L171.172 20L166.578 15.4062L167.984 14L173.984 20L167.984 26L166.578 24.5938Z" fill="#3C444C"/>
</svg>
